<svg width="1064" height="12" viewBox="0 0 1064 12" fill="none" xmlns="http://www.w3.org/2000/svg">
<path d="M1 1C9.17497 1 9.17497 11 17.3499 11C25.5249 11 25.5249 1 33.6999 1C41.8749 1 41.8749 11 50.0307 11C58.2059 11 58.2059 1 66.3615 1C74.5366 1 74.5366 11 82.6922 11C90.8673 11 90.8674 1 99.0419 1C107.217 1 107.217 11 115.392 11C123.567 11 123.567 1 131.742 1C139.917 1 139.917 11 148.092 11C156.267 11 156.267 1 164.442 1C172.617 1 172.617 11 180.792 11C188.967 11 188.967 1 197.142 1C205.317 1 205.317 11 213.473 11C221.648 11 221.648 1 229.803 1C237.979 1 237.979 11 246.134 11C254.309 11 254.309 1 262.484 1C270.659 1 270.659 11 278.834 11C287.009 11 287.009 1 295.184 1C303.359 1 303.359 11 311.534 11C319.709 11 319.709 1 327.884 1C336.059 1 336.059 11 344.234 11C352.409 11 352.409 1 360.584 1C368.759 1 368.759 11 376.915 11C385.09 11 385.09 1 393.245 1M262.166 1C270.341 1 270.341 11 278.516 11C286.691 11 286.691 1 294.866 1C303.041 1 303.041 11 311.197 11C319.372 11 319.372 1 327.527 1C335.703 1 335.703 11 343.858 11C352.033 11 352.033 1 360.208 1C368.383 1 368.383 11 376.558 11C384.733 11 384.733 1 392.908 1C401.083 1 401.083 11 409.258 11C417.433 11 417.433 1 425.608 1C433.783 1 433.783 11 441.958 11C450.133 11 450.133 1 458.308 1C466.483 1 466.483 11 474.638 11C482.814 11 482.814 1 490.969 1C499.144 1 499.144 11 507.3 11C515.475 11 515.475 1 523.65 1C531.825 1 531.825 11 540 11" stroke="#A1A6B4" stroke-miterlimit="10" stroke-linecap="square"/>
<path d="M524 1C532.175 1 532.175 11 540.35 11C548.525 11 548.525 1 556.7 1C564.875 1 564.875 11 573.031 11C581.206 11 581.206 1 589.361 1C597.537 1 597.537 11 605.692 11C613.867 11 613.867 1 622.042 1C630.217 1 630.217 11 638.392 11C646.567 11 646.567 1 654.742 1C662.917 1 662.917 11 671.092 11C679.267 11 679.267 1 687.442 1C695.617 1 695.617 11 703.792 11C711.967 11 711.967 1 720.142 1C728.317 1 728.317 11 736.473 11C744.648 11 744.648 1 752.803 1C760.979 1 760.979 11 769.134 11C777.309 11 777.309 1 785.484 1C793.659 1 793.659 11 801.834 11C810.009 11 810.009 1 818.184 1C826.359 1 826.359 11 834.534 11C842.709 11 842.709 1 850.884 1C859.059 1 859.059 11 867.234 11C875.409 11 875.409 1 883.584 1C891.759 1 891.759 11 899.915 11C908.09 11 908.09 1 916.245 1M785.166 1C793.341 1 793.341 11 801.516 11C809.691 11 809.691 1 817.866 1C826.041 1 826.041 11 834.197 11C842.372 11 842.372 1 850.527 1C858.703 1 858.703 11 866.858 11C875.033 11 875.033 1 883.208 1C891.383 1 891.383 11 899.558 11C907.733 11 907.733 1 915.908 1C924.083 1 924.083 11 932.258 11C940.433 11 940.433 1 948.608 1C956.783 1 956.783 11 964.958 11C973.133 11 973.133 1 981.308 1C989.483 1 989.483 11 997.638 11C1005.81 11 1005.81 1 1013.97 1C1022.14 1 1022.14 11 1030.3 11C1038.48 11 1038.48 1 1046.65 1C1054.82 1 1054.82 11 1063 11" stroke="#A1A6B4" stroke-miterlimit="10" stroke-linecap="square"/>
</svg>
